<mxfile host="Electron" modified="2024-06-22T22:36:38.762Z" agent="Mozilla/5.0 (Macintosh; Intel Mac OS X 10_15_7) AppleWebKit/537.36 (KHTML, like Gecko) draw.io/24.6.1 Chrome/124.0.6367.207 Electron/30.0.6 Safari/537.36" etag="AgTnCIPAt0wPtLo6uaal" version="24.6.1" type="device">
  <diagram name="第 1 页" id="GOObfM7NlBAsnES_Xo6h">
    <mxGraphModel dx="1207" dy="822" grid="1" gridSize="10" guides="1" tooltips="1" connect="1" arrows="1" fold="1" page="1" pageScale="1" pageWidth="827" pageHeight="1169" math="0" shadow="0">
      <root>
        <mxCell id="0" />
        <mxCell id="1" parent="0" />
        <mxCell id="fBD5yQKE9Gaq7XWqwG4V-8" value="Flask Back End" style="rounded=0;whiteSpace=wrap;html=1;fillColor=none;dashed=1;dashPattern=8 8;labelPosition=center;verticalLabelPosition=top;align=center;verticalAlign=bottom;" vertex="1" parent="1">
          <mxGeometry x="280" y="120" width="360" height="350" as="geometry" />
        </mxCell>
        <mxCell id="fBD5yQKE9Gaq7XWqwG4V-1" value="DHT 11 Sensor" style="sketch=0;outlineConnect=0;fontColor=#232F3E;gradientColor=none;fillColor=#000000;strokeColor=none;dashed=0;verticalLabelPosition=bottom;verticalAlign=top;align=center;html=1;fontSize=12;fontStyle=0;aspect=fixed;pointerEvents=1;shape=mxgraph.aws4.iot_thing_temperature_sensor;" vertex="1" parent="1">
          <mxGeometry x="50" y="315" width="40" height="40" as="geometry" />
        </mxCell>
        <mxCell id="fBD5yQKE9Gaq7XWqwG4V-6" style="edgeStyle=orthogonalEdgeStyle;rounded=0;orthogonalLoop=1;jettySize=auto;html=1;exitX=0.5;exitY=1;exitDx=0;exitDy=0;entryX=0.5;entryY=0;entryDx=0;entryDy=0;" edge="1" parent="1" source="fBD5yQKE9Gaq7XWqwG4V-2" target="fBD5yQKE9Gaq7XWqwG4V-5">
          <mxGeometry relative="1" as="geometry" />
        </mxCell>
        <mxCell id="fBD5yQKE9Gaq7XWqwG4V-13" style="edgeStyle=orthogonalEdgeStyle;rounded=0;orthogonalLoop=1;jettySize=auto;html=1;exitX=1;exitY=0.5;exitDx=0;exitDy=0;entryX=0;entryY=0.5;entryDx=0;entryDy=0;" edge="1" parent="1" source="fBD5yQKE9Gaq7XWqwG4V-2" target="fBD5yQKE9Gaq7XWqwG4V-9">
          <mxGeometry relative="1" as="geometry" />
        </mxCell>
        <mxCell id="fBD5yQKE9Gaq7XWqwG4V-2" value="Raspberry&amp;nbsp;Pi" style="rounded=1;whiteSpace=wrap;html=1;" vertex="1" parent="1">
          <mxGeometry x="130" y="320" width="100" height="30" as="geometry" />
        </mxCell>
        <mxCell id="fBD5yQKE9Gaq7XWqwG4V-3" value="" style="endArrow=classic;html=1;rounded=0;entryX=0;entryY=0.5;entryDx=0;entryDy=0;" edge="1" parent="1" source="fBD5yQKE9Gaq7XWqwG4V-1" target="fBD5yQKE9Gaq7XWqwG4V-2">
          <mxGeometry width="50" height="50" relative="1" as="geometry">
            <mxPoint x="90" y="340" as="sourcePoint" />
            <mxPoint x="140" y="290" as="targetPoint" />
          </mxGeometry>
        </mxCell>
        <mxCell id="fBD5yQKE9Gaq7XWqwG4V-18" style="edgeStyle=orthogonalEdgeStyle;rounded=0;orthogonalLoop=1;jettySize=auto;html=1;exitX=1;exitY=0.5;exitDx=0;exitDy=0;exitPerimeter=0;entryX=0;entryY=0.5;entryDx=0;entryDy=0;" edge="1" parent="1" source="fBD5yQKE9Gaq7XWqwG4V-4" target="fBD5yQKE9Gaq7XWqwG4V-12">
          <mxGeometry relative="1" as="geometry" />
        </mxCell>
        <mxCell id="fBD5yQKE9Gaq7XWqwG4V-19" style="edgeStyle=orthogonalEdgeStyle;rounded=0;orthogonalLoop=1;jettySize=auto;html=1;exitX=1;exitY=0.5;exitDx=0;exitDy=0;exitPerimeter=0;entryX=0;entryY=0.5;entryDx=0;entryDy=0;" edge="1" parent="1" source="fBD5yQKE9Gaq7XWqwG4V-4" target="fBD5yQKE9Gaq7XWqwG4V-15">
          <mxGeometry relative="1" as="geometry">
            <Array as="points">
              <mxPoint x="503" y="520" />
              <mxPoint x="503" y="380" />
              <mxPoint x="500" y="380" />
              <mxPoint x="500" y="315" />
            </Array>
          </mxGeometry>
        </mxCell>
        <mxCell id="fBD5yQKE9Gaq7XWqwG4V-20" style="edgeStyle=orthogonalEdgeStyle;rounded=0;orthogonalLoop=1;jettySize=auto;html=1;exitX=1;exitY=0.5;exitDx=0;exitDy=0;exitPerimeter=0;entryX=0;entryY=0.5;entryDx=0;entryDy=0;" edge="1" parent="1" source="fBD5yQKE9Gaq7XWqwG4V-4" target="fBD5yQKE9Gaq7XWqwG4V-16">
          <mxGeometry relative="1" as="geometry">
            <Array as="points">
              <mxPoint x="503" y="520" />
              <mxPoint x="503" y="380" />
              <mxPoint x="500" y="380" />
              <mxPoint x="500" y="370" />
            </Array>
          </mxGeometry>
        </mxCell>
        <mxCell id="fBD5yQKE9Gaq7XWqwG4V-21" style="edgeStyle=orthogonalEdgeStyle;rounded=0;orthogonalLoop=1;jettySize=auto;html=1;exitX=1;exitY=0.5;exitDx=0;exitDy=0;exitPerimeter=0;entryX=0;entryY=0.5;entryDx=0;entryDy=0;" edge="1" parent="1" source="fBD5yQKE9Gaq7XWqwG4V-4" target="fBD5yQKE9Gaq7XWqwG4V-17">
          <mxGeometry relative="1" as="geometry">
            <Array as="points">
              <mxPoint x="503" y="520" />
              <mxPoint x="503" y="420" />
            </Array>
          </mxGeometry>
        </mxCell>
        <mxCell id="fBD5yQKE9Gaq7XWqwG4V-4" value="DB" style="shape=cylinder3;whiteSpace=wrap;html=1;boundedLbl=1;backgroundOutline=1;size=15;" vertex="1" parent="1">
          <mxGeometry x="423" y="480" width="60" height="80" as="geometry" />
        </mxCell>
        <mxCell id="fBD5yQKE9Gaq7XWqwG4V-5" value="Save to SD card" style="rounded=1;whiteSpace=wrap;html=1;" vertex="1" parent="1">
          <mxGeometry x="140" y="390" width="80" height="30" as="geometry" />
        </mxCell>
        <mxCell id="fBD5yQKE9Gaq7XWqwG4V-9" value="&lt;b&gt;&lt;i&gt;&lt;font color=&quot;#ff0000&quot;&gt;API&lt;/font&gt;&lt;/i&gt;&lt;/b&gt; update" style="rounded=1;whiteSpace=wrap;html=1;" vertex="1" parent="1">
          <mxGeometry x="303" y="315" width="97" height="40" as="geometry" />
        </mxCell>
        <mxCell id="fBD5yQKE9Gaq7XWqwG4V-12" value="&lt;b&gt;&lt;i&gt;&lt;font color=&quot;#ff0000&quot;&gt;API&lt;/font&gt;&lt;/i&gt;&lt;/b&gt;&amp;nbsp;get_latest" style="rounded=1;whiteSpace=wrap;html=1;" vertex="1" parent="1">
          <mxGeometry x="520" y="240" width="97" height="40" as="geometry" />
        </mxCell>
        <mxCell id="fBD5yQKE9Gaq7XWqwG4V-14" style="edgeStyle=orthogonalEdgeStyle;rounded=0;orthogonalLoop=1;jettySize=auto;html=1;exitX=0.5;exitY=1;exitDx=0;exitDy=0;entryX=0;entryY=0.5;entryDx=0;entryDy=0;entryPerimeter=0;" edge="1" parent="1" source="fBD5yQKE9Gaq7XWqwG4V-9" target="fBD5yQKE9Gaq7XWqwG4V-4">
          <mxGeometry relative="1" as="geometry" />
        </mxCell>
        <mxCell id="fBD5yQKE9Gaq7XWqwG4V-15" value="&lt;b&gt;&lt;i&gt;&lt;font color=&quot;#ff0000&quot;&gt;API&lt;/font&gt;&lt;/i&gt;&lt;/b&gt; get_by_date" style="rounded=1;whiteSpace=wrap;html=1;" vertex="1" parent="1">
          <mxGeometry x="520" y="295" width="97" height="40" as="geometry" />
        </mxCell>
        <mxCell id="fBD5yQKE9Gaq7XWqwG4V-16" value="&lt;b&gt;&lt;i&gt;&lt;font color=&quot;#ff0000&quot;&gt;API&lt;/font&gt;&lt;/i&gt;&lt;/b&gt; get_by_period" style="rounded=1;whiteSpace=wrap;html=1;" vertex="1" parent="1">
          <mxGeometry x="520" y="350" width="97" height="40" as="geometry" />
        </mxCell>
        <mxCell id="fBD5yQKE9Gaq7XWqwG4V-17" value="&lt;b&gt;&lt;i&gt;&lt;font color=&quot;#ff0000&quot;&gt;API&lt;/font&gt;&lt;/i&gt;&lt;/b&gt; summary_by_day" style="rounded=1;whiteSpace=wrap;html=1;" vertex="1" parent="1">
          <mxGeometry x="520" y="400" width="97" height="40" as="geometry" />
        </mxCell>
        <mxCell id="fBD5yQKE9Gaq7XWqwG4V-25" value="&lt;strike&gt;&lt;b&gt;&lt;i&gt;&lt;font color=&quot;#ff0000&quot;&gt;API&lt;/font&gt;&lt;/i&gt;&lt;/b&gt;&amp;nbsp;get_all&lt;/strike&gt;" style="rounded=1;whiteSpace=wrap;html=1;" vertex="1" parent="1">
          <mxGeometry x="520" y="140" width="97" height="40" as="geometry" />
        </mxCell>
        <mxCell id="fBD5yQKE9Gaq7XWqwG4V-27" value="&lt;strike&gt;&lt;b&gt;&lt;i&gt;&lt;font color=&quot;#ff0000&quot;&gt;API&lt;/font&gt;&lt;/i&gt;&lt;/b&gt;&amp;nbsp;hourly_data&lt;/strike&gt;" style="rounded=1;whiteSpace=wrap;html=1;" vertex="1" parent="1">
          <mxGeometry x="520" y="190" width="97" height="40" as="geometry" />
        </mxCell>
        <mxCell id="fBD5yQKE9Gaq7XWqwG4V-28" value="" style="shape=curlyBracket;whiteSpace=wrap;html=1;rounded=1;flipH=1;labelPosition=right;verticalLabelPosition=middle;align=left;verticalAlign=middle;" vertex="1" parent="1">
          <mxGeometry x="670" y="240" width="20" height="200" as="geometry" />
        </mxCell>
        <mxCell id="fBD5yQKE9Gaq7XWqwG4V-29" value="Vue.js Front End Client" style="rounded=0;whiteSpace=wrap;html=1;fillColor=none;dashed=1;dashPattern=8 8;labelPosition=center;verticalLabelPosition=top;align=center;verticalAlign=bottom;" vertex="1" parent="1">
          <mxGeometry x="650" y="220" width="240" height="250" as="geometry" />
        </mxCell>
        <mxCell id="fBD5yQKE9Gaq7XWqwG4V-30" value="Iot Device" style="rounded=0;whiteSpace=wrap;html=1;fillColor=none;dashed=1;dashPattern=8 8;labelPosition=center;verticalLabelPosition=top;align=center;verticalAlign=bottom;" vertex="1" parent="1">
          <mxGeometry x="30" y="220" width="240" height="250" as="geometry" />
        </mxCell>
        <mxCell id="fBD5yQKE9Gaq7XWqwG4V-31" value="&lt;b&gt;&lt;i&gt;&lt;font color=&quot;#ff0000&quot;&gt;Func&lt;/font&gt;&lt;/i&gt;&lt;/b&gt;&amp;nbsp;Get Latest Data" style="rounded=1;whiteSpace=wrap;html=1;" vertex="1" parent="1">
          <mxGeometry x="710" y="245" width="130" height="40" as="geometry" />
        </mxCell>
        <mxCell id="fBD5yQKE9Gaq7XWqwG4V-32" value="&lt;b&gt;&lt;i&gt;&lt;font color=&quot;#ff0000&quot;&gt;Func&lt;/font&gt;&lt;/i&gt;&lt;/b&gt;&amp;nbsp;Get Data by Period" style="rounded=1;whiteSpace=wrap;html=1;" vertex="1" parent="1">
          <mxGeometry x="710" y="300" width="130" height="40" as="geometry" />
        </mxCell>
        <mxCell id="fBD5yQKE9Gaq7XWqwG4V-33" value="&lt;b&gt;&lt;i&gt;&lt;font color=&quot;#ff0000&quot;&gt;Func&lt;/font&gt;&lt;/i&gt;&lt;/b&gt;&amp;nbsp;Get Data by Date" style="rounded=1;whiteSpace=wrap;html=1;" vertex="1" parent="1">
          <mxGeometry x="710" y="355" width="130" height="40" as="geometry" />
        </mxCell>
        <mxCell id="fBD5yQKE9Gaq7XWqwG4V-34" value="&lt;b&gt;&lt;i&gt;&lt;font color=&quot;#ff0000&quot;&gt;Func&lt;/font&gt;&lt;/i&gt;&lt;/b&gt;&amp;nbsp;Get Summary by Day" style="rounded=1;whiteSpace=wrap;html=1;" vertex="1" parent="1">
          <mxGeometry x="710" y="405" width="130" height="40" as="geometry" />
        </mxCell>
      </root>
    </mxGraphModel>
  </diagram>
</mxfile>
